<svg xmlns="http://www.w3.org/2000/svg" width="512" height="512" viewBox="0 0 512 512" version="1.1">
	<path d="M 219.500 29.295 C 195.989 41.319, 196.353 40.437, 208.336 56.311 C 216.572 67.221, 227.626 84.707, 226.806 85.527 C 226.591 85.742, 224.065 84.828, 221.191 83.497 C 213.188 79.789, 200.821 76.142, 190.672 74.496 C 178.842 72.577, 156.742 72.586, 143.899 74.515 C 132.969 76.157, 130.591 77.027, 129.023 79.957 C 126.198 85.235, 129.754 90.556, 136.778 91.562 C 154.179 94.052, 177.831 105.780, 192 118.943 C 197.085 123.667, 197.966 123.559, 182.187 120.145 C 154.042 114.056, 123.590 115.113, 99 123.034 C 89.214 126.186, 72.212 135.026, 63.367 141.561 C 23.617 170.927, -0 222.325, -0 279.465 C 0 372.273, 51.116 442.765, 141 473.912 C 177.323 486.498, 210.028 491.500, 256 491.500 C 301.972 491.500, 334.677 486.498, 371 473.912 C 444.848 448.322, 492.921 396.084, 507.465 325.624 C 508.813 319.093, 510.223 309.968, 510.598 305.347 C 510.973 300.726, 511.667 296.706, 512.140 296.414 C 512.613 296.121, 513 288.007, 513 278.382 C 513 268.757, 512.630 261.111, 512.178 261.390 C 511.726 261.670, 510.841 257.511, 510.212 252.148 C 506.006 216.306, 488.640 179.512, 464.564 155.436 C 438.924 129.797, 409.837 117.662, 371 116.404 C 351.135 115.761, 350.400 116.012, 346.358 124.808 C 346.280 124.978, 342.266 125.756, 337.438 126.538 C 328.908 127.918, 328.619 127.901, 327.229 125.916 C 324.444 121.940, 321.663 121.795, 311.379 125.089 C 306.121 126.774, 301.592 127.925, 301.314 127.648 C 300.213 126.546, 310.486 112.417, 317.457 105.446 C 331.932 90.971, 353.094 79.820, 373.269 76.036 C 378.401 75.073, 380.518 74.157, 382.019 72.248 C 385.089 68.346, 384.235 63.267, 380.143 61.077 C 373.605 57.578, 339.351 55.681, 323.443 57.937 C 308.448 60.064, 288.913 67.179, 276.735 74.949 C 269.602 79.500, 270.636 80.305, 266.518 67 C 261.164 49.702, 248.170 23.232, 243.915 20.955 C 240.462 19.107, 237.336 20.175, 219.500 29.295 M 228.750 42.062 C 224.488 44.241, 221 46.215, 221 46.448 C 221 46.681, 223.629 50.542, 226.843 55.028 C 233.803 64.746, 244.806 84.734, 248.571 94.500 C 250.468 99.419, 252.722 102.986, 256.156 106.500 L 261.041 111.500 260.419 108 C 258.422 96.761, 254.358 80.065, 251.291 70.500 C 247.852 59.777, 238.309 37.950, 237.103 38.050 C 236.772 38.077, 233.012 39.883, 228.750 42.062 M 327.500 73.142 C 309.109 75.478, 290.440 83.232, 274.765 95.045 C 274.361 95.350, 274.739 99.627, 275.605 104.550 C 276.471 109.472, 277.712 118.450, 278.362 124.500 L 279.543 135.500 284.409 125.652 C 293.853 106.534, 307.761 90.855, 325.904 78.872 C 331.627 75.092, 335.902 72.057, 335.404 72.126 C 334.907 72.196, 331.350 72.653, 327.500 73.142 M 179.405 90.309 C 197.157 101.410, 208.592 111.616, 217 123.865 C 223.029 132.648, 224.340 133.490, 237.245 136.870 C 246.223 139.222, 258.972 140.432, 260.930 139.119 C 262.832 137.843, 257.183 130.329, 246.394 119.785 C 236.853 110.460, 230.095 105.556, 219.500 100.272 C 207.238 94.157, 189.056 88.904, 180.685 89.059 C 177.814 89.112, 177.688 89.235, 179.405 90.309 M 0.413 279.500 C 0.414 289.400, 0.564 293.315, 0.746 288.199 C 0.928 283.084, 0.927 274.984, 0.744 270.199 C 0.561 265.415, 0.412 269.600, 0.413 279.500" stroke="none" fill="black" fill-rule="evenodd"/>
</svg>